<?xml version="1.0" encoding="UTF-8" standalone="no"?>
<!DOCTYPE svg PUBLIC "-//W3C//DTD SVG 1.1//EN"
 "http://www.w3.org/Graphics/SVG/1.1/DTD/svg11.dtd">
<!-- Generated by graphviz version 2.40.1 (20161225.0304)
 -->
<!-- Title: models_diagram Pages: 1 -->
<svg width="157pt" height="204pt"
 viewBox="0.00 0.00 157.00 204.00" xmlns="http://www.w3.org/2000/svg" xmlns:xlink="http://www.w3.org/1999/xlink">
<g id="graph0" class="graph" transform="scale(1 1) rotate(0) translate(36 168)">
<title>models_diagram</title>
<polygon fill="#ffffff" stroke="transparent" points="-36,36 -36,-168 121,-168 121,36 -36,36"/>
<!-- user -->
<g id="node1" class="node">
<title>user</title>
<polygon fill="#add8e6" stroke="transparent" points=".5,-110 .5,-132 85.5,-132 85.5,-110 .5,-110"/>
<polygon fill="none" stroke="#000000" points=".5,-110 .5,-132 85.5,-132 85.5,-110 .5,-110"/>
<text text-anchor="start" x="34.6715" y="-119" font-family="Times,serif" font-weight="bold" font-size="10.00" fill="#000000">user</text>
<polygon fill="none" stroke="#000000" points=".5,-88 .5,-110 85.5,-110 85.5,-88 .5,-88"/>
<text text-anchor="start" x="5.371" y="-97" font-family="Times,serif" text-decoration="underline" font-size="10.00" fill="#000000">userID</text>
<text text-anchor="start" x="32.576" y="-97" font-family="Times,serif" font-size="10.00" fill="#000000">: NUMBER</text>
<polygon fill="none" stroke="#000000" points=".5,-66 .5,-88 85.5,-88 85.5,-66 .5,-66"/>
<text text-anchor="start" x="5.5" y="-74" font-family="Times,serif" font-size="10.00" fill="#000000">name: STRING</text>
<polygon fill="none" stroke="#000000" points=".5,-44 .5,-66 85.5,-66 85.5,-44 .5,-44"/>
<text text-anchor="start" x="5.5" y="-52" font-family="Times,serif" font-size="10.00" fill="#000000">gender: ENUM</text>
<polygon fill="none" stroke="#000000" points=".5,-22 .5,-44 85.5,-44 85.5,-22 .5,-22"/>
<text text-anchor="start" x="5.5" y="-30" font-family="Times,serif" font-size="10.00" fill="#000000">createdAt: DATE</text>
<polygon fill="none" stroke="#000000" points=".5,0 .5,-22 85.5,-22 85.5,0 .5,0"/>
<text text-anchor="start" x="5.5" y="-8" font-family="Times,serif" font-size="10.00" fill="#000000">updatedAt: DATE</text>
</g>
</g>
</svg>
