<?xml version="1.0" encoding="UTF-8" standalone="no"?>
<!DOCTYPE svg PUBLIC "-//W3C//DTD SVG 1.1//EN"
 "http://www.w3.org/Graphics/SVG/1.1/DTD/svg11.dtd">
<!-- Generated by graphviz version 2.40.1 (20161225.0304)
 -->
<!-- Title: models_diagram Pages: 1 -->
<svg width="364pt" height="204pt"
 viewBox="0.00 0.00 364.00 204.00" xmlns="http://www.w3.org/2000/svg" xmlns:xlink="http://www.w3.org/1999/xlink">
<g id="graph0" class="graph" transform="scale(1 1) rotate(0) translate(36 168)">
<title>models_diagram</title>
<polygon fill="#ffffff" stroke="transparent" points="-36,36 -36,-168 328,-168 328,36 -36,36"/>
<!-- post -->
<g id="node1" class="node">
<title>post</title>
<polygon fill="#add8e6" stroke="transparent" points=".5,-110 .5,-132 91.5,-132 91.5,-110 .5,-110"/>
<polygon fill="none" stroke="#000000" points=".5,-110 .5,-132 91.5,-132 91.5,-110 .5,-110"/>
<text text-anchor="start" x="37.666" y="-119" font-family="Times,serif" font-weight="bold" font-size="10.00" fill="#000000">post</text>
<polygon fill="none" stroke="#000000" points=".5,-88 .5,-110 91.5,-110 91.5,-88 .5,-88"/>
<text text-anchor="start" x="5.5" y="-97" font-family="Times,serif" text-decoration="underline" font-size="10.00" fill="#000000">postId</text>
<text text-anchor="start" x="30.497" y="-97" font-family="Times,serif" font-size="10.00" fill="#000000">: NUMBER</text>
<polygon fill="none" stroke="#000000" points=".5,-66 .5,-88 91.5,-88 91.5,-66 .5,-66"/>
<text text-anchor="start" x="5.5" y="-74" font-family="Times,serif" font-size="10.00" fill="#000000">content: STRING</text>
<polygon fill="none" stroke="#000000" points=".5,-44 .5,-66 91.5,-66 91.5,-44 .5,-44"/>
<text text-anchor="start" x="5.316" y="-53" font-family="Times,serif" font-style="italic" text-decoration="underline" font-size="10.00" fill="#000000">userKey</text>
<text text-anchor="start" x="38.631" y="-53" font-family="Times,serif" font-size="10.00" fill="#000000">: NUMBER</text>
<polygon fill="none" stroke="#000000" points=".5,-22 .5,-44 91.5,-44 91.5,-22 .5,-22"/>
<text text-anchor="start" x="5.5" y="-30" font-family="Times,serif" font-size="10.00" fill="#000000">createdAt: DATE</text>
<polygon fill="none" stroke="#000000" points=".5,0 .5,-22 91.5,-22 91.5,0 .5,0"/>
<text text-anchor="start" x="5.5" y="-8" font-family="Times,serif" font-size="10.00" fill="#000000">updatedAt: DATE</text>
</g>
<!-- user -->
<g id="node2" class="node">
<title>user</title>
<polygon fill="#add8e6" stroke="transparent" points="207.5,-110 207.5,-132 292.5,-132 292.5,-110 207.5,-110"/>
<polygon fill="none" stroke="#000000" points="207.5,-110 207.5,-132 292.5,-132 292.5,-110 207.5,-110"/>
<text text-anchor="start" x="241.6715" y="-119" font-family="Times,serif" font-weight="bold" font-size="10.00" fill="#000000">user</text>
<polygon fill="none" stroke="#000000" points="207.5,-88 207.5,-110 292.5,-110 292.5,-88 207.5,-88"/>
<text text-anchor="start" x="212.371" y="-97" font-family="Times,serif" text-decoration="underline" font-size="10.00" fill="#000000">userID</text>
<text text-anchor="start" x="239.576" y="-97" font-family="Times,serif" font-size="10.00" fill="#000000">: NUMBER</text>
<polygon fill="none" stroke="#000000" points="207.5,-66 207.5,-88 292.5,-88 292.5,-66 207.5,-66"/>
<text text-anchor="start" x="212.5" y="-74" font-family="Times,serif" font-size="10.00" fill="#000000">name: STRING</text>
<polygon fill="none" stroke="#000000" points="207.5,-44 207.5,-66 292.5,-66 292.5,-44 207.5,-44"/>
<text text-anchor="start" x="212.5" y="-52" font-family="Times,serif" font-size="10.00" fill="#000000">gender: ENUM</text>
<polygon fill="none" stroke="#000000" points="207.5,-22 207.5,-44 292.5,-44 292.5,-22 207.5,-22"/>
<text text-anchor="start" x="212.5" y="-30" font-family="Times,serif" font-size="10.00" fill="#000000">createdAt: DATE</text>
<polygon fill="none" stroke="#000000" points="207.5,0 207.5,-22 292.5,-22 292.5,0 207.5,0"/>
<text text-anchor="start" x="212.5" y="-8" font-family="Times,serif" font-size="10.00" fill="#000000">updatedAt: DATE</text>
</g>
<!-- user&#45;&gt;post -->
<g id="edge1" class="edge">
<title>user&#45;&gt;post</title>
<path fill="none" stroke="#000000" stroke-width=".75" d="M206.7349,-66C172.8529,-66 125.6261,-66 91.0415,-66"/>
</g>
</g>
</svg>
